<svg width="1956" height="774" viewBox="0 0 1956 774" fill="none" xmlns="http://www.w3.org/2000/svg">
<g filter="url(#filter0_d)">
<rect x="20" y="14" width="1916" height="734" rx="124.729" fill="white"/>
</g>
<path d="M466.905 163.301L193.826 145.036C184.924 144.446 177.203 151.196 176.607 160.096L174.47 192.037H138.175C129.257 192.037 122 199.294 122 208.213V601.476C122 610.395 129.257 617.652 138.175 617.652H347.201C349.012 617.652 350.807 616.912 352.092 615.632L383.646 584.218C383.967 584.286 384.294 584.341 384.631 584.363L438.501 587.966C447.099 588.533 455.144 581.54 455.72 572.906L481.964 180.521C482.555 171.714 475.711 163.89 466.905 163.301ZM354.133 593.94V545.784C354.133 544.51 355.17 543.473 356.444 543.473H404.415L354.133 593.94ZM441.886 571.982C441.661 573.377 440.841 574.095 439.428 574.132L396.65 571.271L425.999 542.052C427.306 540.752 428.041 538.984 428.041 537.14V208.214C428.041 199.295 420.784 192.038 411.866 192.038H339.776C330.812 192.038 330.812 205.903 339.776 205.903H411.866C413.14 205.903 414.176 206.94 414.176 208.214V529.608H356.444C347.525 529.608 340.268 536.865 340.268 545.784V603.787H138.175C136.902 603.787 135.865 602.75 135.865 601.476V208.214C135.865 206.94 136.902 205.903 138.175 205.903H302.858C311.822 205.903 311.822 192.038 302.858 192.038H188.366L190.44 161.022C190.665 159.625 191.485 158.909 192.899 158.871L465.978 177.135C467.375 177.361 468.092 178.181 468.13 179.595L441.886 571.982Z" fill="#0F4C81"/>
<path d="M369.556 363.808H180.485C176.656 363.808 173.553 366.912 173.553 370.74C173.553 374.569 176.656 377.673 180.485 377.673H369.556C373.385 377.673 376.488 374.569 376.488 370.74C376.488 366.912 373.385 363.808 369.556 363.808Z" fill="#0F4C81"/>
<path d="M369.556 412.135H180.485C176.656 412.135 173.553 415.239 173.553 419.068C173.553 422.896 176.656 426 180.485 426H369.556C373.385 426 376.488 422.896 376.488 419.068C376.488 415.239 373.385 412.135 369.556 412.135Z" fill="#0F4C81"/>
<path d="M173.553 322.412C173.553 326.241 176.656 329.345 180.485 329.345H369.556C373.385 329.345 376.488 326.241 376.488 322.412C376.488 318.584 373.385 315.48 369.556 315.48H180.485C176.656 315.48 173.553 318.584 173.553 322.412Z" fill="#0F4C81"/>
<path d="M206.858 274.085C206.858 277.913 209.962 281.017 213.791 281.017H336.25C340.079 281.017 343.182 277.913 343.182 274.085C343.182 270.256 340.079 267.152 336.25 267.152H213.791C209.962 267.152 206.858 270.256 206.858 274.085Z" fill="#0F4C81"/>
<path d="M196.407 522.543L186.731 535.412L175.661 531.735L179.547 558.848H213.268L217.153 531.735L206.083 535.412L196.407 522.543ZM208.284 553.116H184.53L182.668 540.104L188.841 542.159L196.407 532.099L203.974 542.159L210.147 540.104L208.284 553.116Z" fill="#0F4C81"/>
<path d="M196.407 506.984C177.103 506.984 161.399 522.688 161.399 541.992C161.399 561.297 177.103 577.001 196.407 577.001C215.711 577.001 231.415 561.297 231.415 541.992C231.415 522.688 215.711 506.984 196.407 506.984ZM196.407 571.166C180.321 571.166 167.233 558.079 167.233 541.992C167.233 525.906 180.321 512.819 196.407 512.819C212.493 512.819 225.581 525.906 225.581 541.992C225.581 558.079 212.493 571.166 196.407 571.166Z" fill="#0F4C81"/>
<path d="M234.065 517.373C233.347 514.186 231.736 511.27 229.411 508.944C227.086 506.617 224.175 505.006 220.989 504.288C215.542 503.056 210.378 500.917 205.649 497.931C200.127 494.443 192.679 494.443 187.162 497.931C182.43 500.914 177.266 503.056 171.823 504.288C168.634 505.006 165.722 506.617 163.397 508.944C161.072 511.27 159.462 514.186 158.744 517.371C157.513 522.814 155.377 527.981 152.39 532.718C150.651 535.479 149.729 538.678 149.729 541.968C149.729 545.258 150.651 548.457 152.396 551.215C155.38 555.955 157.519 561.122 158.75 566.563C159.468 569.753 161.078 572.666 163.403 574.992C165.722 577.316 168.634 578.924 171.823 579.648C177.272 580.883 182.436 583.019 187.165 586.005C189.922 587.748 193.119 588.67 196.407 588.67C199.695 588.67 202.893 587.748 205.649 586.002C210.381 583.019 215.545 580.88 220.995 579.645C224.183 578.921 227.095 577.313 229.414 574.989C231.739 572.663 233.35 569.75 234.067 566.563C235.299 561.119 237.434 555.952 240.421 551.215C242.163 548.457 243.085 545.258 243.085 541.968C243.085 538.678 242.163 535.479 240.419 532.721C237.434 527.981 235.296 522.814 234.065 517.373ZM235.485 548.104C232.142 553.407 229.753 559.187 228.373 565.281C227.897 567.392 226.832 569.321 225.286 570.865C223.746 572.406 221.817 573.475 219.705 573.953C213.605 575.337 207.829 577.727 202.534 581.07C198.881 583.384 193.933 583.384 190.275 581.07C184.986 577.727 179.206 575.337 173.106 573.953C170.994 573.475 169.066 572.409 167.525 570.865C165.982 569.321 164.914 567.392 164.439 565.278C163.059 559.187 160.67 553.41 157.326 548.101C156.174 546.273 155.564 544.151 155.564 541.968C155.564 539.785 156.174 537.663 157.329 535.833C160.672 530.529 163.062 524.75 164.442 518.655C164.917 516.545 165.982 514.615 167.528 513.071C169.074 511.527 171 510.459 173.112 509.983C179.209 508.602 184.983 506.209 190.281 502.867C192.104 501.714 194.225 501.104 196.407 501.104C198.589 501.104 200.71 501.714 202.54 502.87C207.832 506.212 213.608 508.605 219.708 509.986C221.817 510.462 223.746 511.527 225.289 513.074C226.832 514.621 227.9 516.547 228.376 518.661C229.756 524.752 232.145 530.529 235.488 535.838C236.641 537.663 237.25 539.785 237.25 541.968C237.25 544.151 236.641 546.273 235.485 548.104Z" fill="#0F4C81"/>
<circle cx="1109.48" cy="297.322" r="16.7816" fill="#0F4C81"/>
<rect x="1039" y="153.001" width="33.5632" height="292" rx="16.7816" fill="#0F4C81"/>
<rect x="1039" y="445" width="33.5632" height="134.253" rx="16.7816" transform="rotate(-90 1039 445)" fill="#0F4C81"/>
<rect x="1039" y="186.563" width="33.5632" height="134.253" rx="16.7816" transform="rotate(-90 1039 186.563)" fill="#0F4C81"/>
<rect x="1463" y="153" width="33.5632" height="292" rx="16.7816" fill="#0F4C81"/>
<rect x="1463" y="445" width="33.5632" height="134.253" rx="16.7816" transform="rotate(-90 1463 445)" fill="#0F4C81"/>
<rect x="635" y="151.595" width="33.7494" height="293.62" rx="16.8747" fill="#0F4C81"/>
<rect x="662.107" y="336.784" width="33.7494" height="230.618" rx="16.8747" transform="rotate(-137.045 662.107 336.784)" fill="#0F4C81"/>
<rect x="728.627" y="335.193" width="33.7494" height="129.482" rx="16.8747" transform="rotate(-26.6722 728.627 335.193)" fill="#0F4C81"/>
<circle cx="728.495" cy="306.627" r="16.8747" fill="#0F4C81"/>
<circle cx="1219.57" cy="385.823" r="16.4045" transform="rotate(-180 1219.57 385.823)" fill="#0F4C81"/>
<rect x="1236.01" y="359.448" width="32.8439" height="186.507" rx="16.422" transform="rotate(-180 1236.01 359.448)" fill="#0F4C81"/>
<path d="M1208 198.417C1201.83 190.554 1203.15 179.064 1211.71 173.908C1228.37 163.883 1246.92 157.253 1266.28 154.477C1291.64 150.842 1317.51 153.944 1341.29 163.47C1365.07 172.997 1385.93 188.613 1401.77 208.751C1417.6 228.888 1427.86 252.838 1431.51 278.195C1435.16 303.552 1432.08 329.423 1422.56 353.21C1413.05 376.997 1397.45 397.862 1377.32 413.71C1357.19 429.559 1333.25 439.832 1307.89 443.498C1288.53 446.298 1268.87 445.17 1250.06 440.251C1240.39 437.721 1235.88 427.07 1239.59 417.784C1243.29 408.499 1253.82 404.137 1263.59 406.27C1276.39 409.065 1289.64 409.555 1302.71 407.665C1321.78 404.908 1339.79 397.182 1354.92 385.264C1370.06 373.346 1381.79 357.655 1388.95 339.767C1396.1 321.879 1398.42 302.423 1395.67 283.354C1392.93 264.286 1385.21 246.275 1373.31 231.131C1361.4 215.987 1345.71 204.244 1327.83 197.079C1309.95 189.915 1290.49 187.583 1271.42 190.317C1258.35 192.191 1245.77 196.399 1234.28 202.694C1225.51 207.495 1214.18 206.28 1208 198.417Z" fill="#0F4C81"/>
<rect x="1678" y="358.471" width="37.2369" height="129.482" rx="18.6185" transform="rotate(-90 1678 358.471)" fill="#0F4C81"/>
<path d="M1782.08 388.777C1789.59 393.93 1792.06 404.084 1786.39 411.164C1775.31 425.006 1760.88 435.252 1744.65 440.592C1723.59 447.521 1700.97 445.709 1681.03 435.5C1661.1 425.291 1645.25 407.388 1636.45 385.168C1627.66 362.949 1626.54 337.947 1633.3 314.878C1640.06 291.809 1654.24 272.266 1673.16 259.935C1692.08 247.604 1714.43 243.336 1736.01 247.936C1757.59 252.537 1776.89 265.688 1790.28 284.909C1800.48 299.536 1806.71 316.908 1808.44 335.035C1809.34 344.505 1800.98 351.692 1791.5 350.969C1782.14 350.255 1775.3 342.032 1773.55 332.804C1771.84 323.82 1768.32 315.299 1763.17 307.908C1754.87 295.991 1742.9 287.837 1729.52 284.985C1716.14 282.133 1702.28 284.779 1690.55 292.424C1678.82 300.069 1670.03 312.186 1665.84 326.489C1661.65 340.792 1662.34 356.293 1667.8 370.069C1673.25 383.845 1683.08 394.945 1695.44 401.274C1707.79 407.604 1721.82 408.727 1734.88 404.431C1742.13 402.044 1748.81 398.076 1754.54 392.832C1762.1 385.919 1773.6 382.956 1782.08 388.777Z" fill="#0F4C81"/>
<path d="M841 259.655C841 250.457 848.457 243 857.655 243C866.854 243 874.31 250.457 874.31 259.655V428.549C874.31 437.748 866.854 445.204 857.655 445.204C848.457 445.204 841 437.748 841 428.549V259.655Z" fill="#0F4C81"/>
<path d="M975.69 328.045C975.69 318.847 983.146 311.39 992.345 311.39C1001.54 311.39 1009 318.847 1009 328.045V388.345C1009 397.543 1001.54 405 992.345 405C983.146 405 975.69 397.543 975.69 388.345V328.045Z" fill="#0F4C81"/>
<path d="M858.145 338.47C849.513 340.013 840.896 334.546 841.005 325.777C841.073 320.27 841.895 314.771 843.469 309.391C846.52 298.963 852.316 289.255 860.423 280.996C868.53 272.736 878.738 266.138 890.282 261.698C901.825 257.257 914.405 255.088 927.078 255.354C939.751 255.62 952.189 258.313 963.459 263.232C974.729 268.151 984.539 275.169 992.155 283.758C999.77 292.348 1004.99 302.287 1007.43 312.83C1008.71 318.377 1009.21 324.015 1008.92 329.627C1008.48 338.254 999.744 343.191 991.313 341.311C981.849 339.201 976.578 329.119 974.733 319.6C974.65 319.169 974.558 318.738 974.459 318.308C972.995 311.982 969.862 306.019 965.293 300.865C960.724 295.711 954.837 291.501 948.075 288.549C941.313 285.598 933.85 283.982 926.247 283.823C918.643 283.663 911.095 284.964 904.169 287.629C897.243 290.293 891.118 294.252 886.254 299.207C881.39 304.163 877.912 309.988 876.081 316.245C875.94 316.727 875.809 317.212 875.688 317.697C873.357 327.052 867.636 336.775 858.145 338.47Z" fill="#0F4C81"/>
<circle cx="991.782" cy="427.782" r="16.7816" fill="#0F4C81"/>
<path d="M641.486 562L620.048 539.482V562H618.266V521.5H620.048V536.188L636.95 521.5H639.488L620.534 537.7L643.862 562H641.486ZM648.568 537.7H650.296V543.1C651.088 541.3 652.438 539.86 654.346 538.78C656.254 537.664 658.36 537.106 660.664 537.106C663.652 537.106 666.01 538.06 667.738 539.968C669.502 541.84 670.384 544.468 670.384 547.852V562H668.656V547.852C668.656 544.936 667.936 542.668 666.496 541.048C665.092 539.428 663.112 538.618 660.556 538.618C658.684 538.618 656.956 539.05 655.372 539.914C653.824 540.742 652.582 541.894 651.646 543.37C650.746 544.846 650.296 546.52 650.296 548.392V562H648.568V537.7ZM688.759 562.864C686.311 562.864 684.097 562.27 682.117 561.082C680.137 559.858 678.589 558.256 677.473 556.276C676.357 554.26 675.799 552.082 675.799 549.742C675.799 547.438 676.357 545.296 677.473 543.316C678.625 541.336 680.173 539.77 682.117 538.618C684.097 537.43 686.293 536.836 688.705 536.836C691.081 536.836 693.241 537.43 695.185 538.618C697.165 539.77 698.713 541.336 699.829 543.316C700.945 545.296 701.503 547.438 701.503 549.742C701.503 552.154 700.963 554.368 699.883 556.384C698.803 558.364 697.291 559.948 695.347 561.136C693.439 562.288 691.243 562.864 688.759 562.864ZM688.759 561.352C690.811 561.352 692.683 560.83 694.375 559.786C696.067 558.742 697.381 557.356 698.317 555.628C699.289 553.864 699.775 551.938 699.775 549.85C699.775 547.798 699.289 545.89 698.317 544.126C697.345 542.362 696.013 540.958 694.321 539.914C692.629 538.87 690.757 538.348 688.705 538.348C686.653 538.348 684.763 538.888 683.035 539.968C681.343 541.012 679.993 542.416 678.985 544.18C678.013 545.944 677.527 547.852 677.527 549.904C677.527 551.956 678.013 553.864 678.985 555.628C679.993 557.356 681.343 558.742 683.035 559.786C684.763 560.83 686.671 561.352 688.759 561.352ZM725.44 562.594L719.932 550.822L714.37 562.594L702.706 537.7H704.488L714.424 558.814L719.122 548.932L713.938 537.808H715.666L719.986 547.204L724.414 537.7H726.142L720.85 548.986L725.44 558.868L735.214 537.754H736.942L725.44 562.594ZM749.824 562.486C748.132 562.486 746.584 562.108 745.18 561.352C743.776 560.56 742.66 559.462 741.832 558.058C741.004 556.654 740.59 555.088 740.59 553.36V521.5H742.318V553.36C742.318 554.8 742.642 556.096 743.29 557.248C743.974 558.4 744.892 559.318 746.044 560.002C747.196 560.65 748.456 560.974 749.824 560.974V562.486ZM765.599 561.136C767.471 561.136 769.253 560.65 770.945 559.678C772.637 558.706 774.041 557.374 775.157 555.682V558.436C773.825 559.912 772.367 560.992 770.783 561.676C769.199 562.324 767.399 562.648 765.383 562.648C763.151 562.648 761.045 562.054 759.065 560.866C757.121 559.678 755.555 558.094 754.367 556.114C753.215 554.134 752.639 552.028 752.639 549.796C752.639 547.384 753.215 545.224 754.367 543.316C755.519 541.372 757.085 539.86 759.065 538.78C761.081 537.7 763.313 537.16 765.761 537.16C769.505 537.16 772.691 538.636 775.319 541.588L758.363 558.328C759.551 559.3 760.703 560.02 761.819 560.488C762.935 560.92 764.195 561.136 765.599 561.136ZM754.367 549.634C754.367 552.622 755.357 555.178 757.337 557.302L773.159 541.588C771.971 540.544 770.819 539.806 769.703 539.374C768.587 538.906 767.255 538.672 765.707 538.672C763.511 538.672 761.549 539.158 759.821 540.13C758.129 541.066 756.797 542.362 755.825 544.018C754.853 545.674 754.367 547.546 754.367 549.634ZM792.168 562.594C789.828 562.594 787.668 562.018 785.688 560.866C783.744 559.714 782.196 558.166 781.044 556.222C779.892 554.278 779.316 552.154 779.316 549.85C779.316 547.546 779.892 545.422 781.044 543.478C782.196 541.534 783.744 539.986 785.688 538.834C787.668 537.682 789.828 537.106 792.168 537.106C794.436 537.106 796.596 537.718 798.648 538.942C800.7 540.13 802.212 541.696 803.184 543.64V521.5H804.912V562H803.184V556.114C802.104 558.058 800.538 559.624 798.486 560.812C796.47 562 794.364 562.594 792.168 562.594ZM792.114 561.082C794.094 561.082 795.93 560.578 797.622 559.57C799.35 558.526 800.718 557.158 801.726 555.466C802.77 553.738 803.292 551.884 803.292 549.904C803.292 547.924 802.77 546.07 801.726 544.342C800.718 542.614 799.35 541.228 797.622 540.184C795.93 539.14 794.094 538.618 792.114 538.618C790.134 538.618 788.298 539.14 786.606 540.184C784.914 541.192 783.564 542.56 782.556 544.288C781.548 546.016 781.044 547.87 781.044 549.85C781.044 551.866 781.53 553.738 782.502 555.466C783.51 557.158 784.86 558.526 786.552 559.57C788.28 560.578 790.134 561.082 792.114 561.082ZM823.446 573.232C821.394 573.232 819.396 572.764 817.452 571.828C815.508 570.892 813.996 569.668 812.916 568.156V565.672C813.852 567.4 815.31 568.84 817.29 569.992C819.306 571.144 821.358 571.72 823.446 571.72C826.902 571.72 829.566 570.694 831.438 568.642C833.31 566.626 834.246 563.656 834.246 559.732V556.114C833.274 558.058 831.744 559.642 829.656 560.866C827.604 562.054 825.444 562.648 823.176 562.648C820.872 562.648 818.73 562.072 816.75 560.92C814.77 559.768 813.204 558.22 812.052 556.276C810.9 554.296 810.324 552.172 810.324 549.904C810.324 547.636 810.9 545.53 812.052 543.586C813.204 541.606 814.77 540.04 816.75 538.888C818.73 537.736 820.872 537.16 823.176 537.16C825.552 537.16 827.748 537.754 829.764 538.942C831.78 540.13 833.274 541.732 834.246 543.748V537.7H835.974V559.732C835.974 564.16 834.894 567.508 832.734 569.776C830.61 572.08 827.514 573.232 823.446 573.232ZM823.284 561.136C825.264 561.136 827.1 560.632 828.792 559.624C830.484 558.58 831.816 557.212 832.788 555.52C833.796 553.792 834.3 551.92 834.3 549.904C834.3 547.888 833.796 546.034 832.788 544.342C831.816 542.614 830.484 541.246 828.792 540.238C827.1 539.194 825.264 538.672 823.284 538.672C821.268 538.672 819.396 539.194 817.668 540.238C815.976 541.246 814.608 542.614 813.564 544.342C812.556 546.034 812.052 547.888 812.052 549.904C812.052 551.92 812.556 553.792 813.564 555.52C814.608 557.212 815.976 558.58 817.668 559.624C819.396 560.632 821.268 561.136 823.284 561.136ZM854.615 561.136C856.487 561.136 858.269 560.65 859.961 559.678C861.653 558.706 863.057 557.374 864.173 555.682V558.436C862.841 559.912 861.383 560.992 859.799 561.676C858.215 562.324 856.415 562.648 854.399 562.648C852.167 562.648 850.061 562.054 848.081 560.866C846.137 559.678 844.571 558.094 843.383 556.114C842.231 554.134 841.655 552.028 841.655 549.796C841.655 547.384 842.231 545.224 843.383 543.316C844.535 541.372 846.101 539.86 848.081 538.78C850.097 537.7 852.329 537.16 854.777 537.16C858.521 537.16 861.707 538.636 864.335 541.588L847.379 558.328C848.567 559.3 849.719 560.02 850.835 560.488C851.951 560.92 853.211 561.136 854.615 561.136ZM843.383 549.634C843.383 552.622 844.373 555.178 846.353 557.302L862.175 541.588C860.987 540.544 859.835 539.806 858.719 539.374C857.603 538.906 856.271 538.672 854.723 538.672C852.527 538.672 850.565 539.158 848.837 540.13C847.145 541.066 845.813 542.362 844.841 544.018C843.869 545.674 843.383 547.546 843.383 549.634ZM893.427 561.136C895.299 561.136 897.081 560.65 898.773 559.678C900.465 558.706 901.869 557.374 902.985 555.682V558.436C901.653 559.912 900.195 560.992 898.611 561.676C897.027 562.324 895.227 562.648 893.211 562.648C890.979 562.648 888.873 562.054 886.893 560.866C884.949 559.678 883.383 558.094 882.195 556.114C881.043 554.134 880.467 552.028 880.467 549.796C880.467 547.384 881.043 545.224 882.195 543.316C883.347 541.372 884.913 539.86 886.893 538.78C888.909 537.7 891.141 537.16 893.589 537.16C897.333 537.16 900.519 538.636 903.147 541.588L886.191 558.328C887.379 559.3 888.531 560.02 889.647 560.488C890.763 560.92 892.023 561.136 893.427 561.136ZM882.195 549.634C882.195 552.622 883.185 555.178 885.165 557.302L900.987 541.588C899.799 540.544 898.647 539.806 897.531 539.374C896.415 538.906 895.083 538.672 893.535 538.672C891.339 538.672 889.377 539.158 887.649 540.13C885.957 541.066 884.625 542.362 883.653 544.018C882.681 545.674 882.195 547.546 882.195 549.634ZM924.612 562L915.756 548.662L907.008 562H905.28L914.73 547.636L908.142 537.7H910.14L915.702 546.124L921.21 537.7H922.938L916.728 547.15L926.61 562H924.612ZM939.655 562.324C936.991 562.324 934.777 561.514 933.013 559.894C931.285 558.274 930.421 556.042 930.421 553.198V527.926H932.149V537.7H939.601V539.212H932.149V553.198C932.149 555.574 932.851 557.446 934.255 558.814C935.695 560.146 937.495 560.812 939.655 560.812V562.324ZM944.197 537.7H945.925V543.316C946.645 541.552 947.689 540.166 949.057 539.158C950.461 538.15 952.045 537.646 953.809 537.646C954.925 537.646 956.059 537.88 957.211 538.348V540.346C956.167 539.554 954.997 539.158 953.701 539.158C952.405 539.158 951.145 539.554 949.921 540.346C948.733 541.138 947.761 542.2 947.005 543.532C946.285 544.864 945.925 546.286 945.925 547.798V562H944.197V537.7ZM972.942 562.594C970.638 562.594 968.496 562.018 966.516 560.866C964.536 559.714 962.97 558.166 961.818 556.222C960.666 554.242 960.09 552.118 960.09 549.85C960.09 547.582 960.666 545.476 961.818 543.532C962.97 541.552 964.536 539.986 966.516 538.834C968.496 537.682 970.638 537.106 972.942 537.106C975.282 537.106 977.496 537.736 979.584 538.996C981.672 540.22 983.13 541.822 983.958 543.802V537.7H985.686V562H983.958V555.952C982.986 557.968 981.474 559.588 979.422 560.812C977.406 562 975.246 562.594 972.942 562.594ZM973.05 561.082C975.03 561.082 976.866 560.578 978.558 559.57C980.25 558.526 981.582 557.158 982.554 555.466C983.562 553.738 984.066 551.866 984.066 549.85C984.066 547.87 983.562 546.016 982.554 544.288C981.546 542.56 980.196 541.192 978.504 540.184C976.812 539.14 974.976 538.618 972.996 538.618C971.016 538.618 969.162 539.14 967.434 540.184C965.742 541.228 964.374 542.614 963.33 544.342C962.322 546.07 961.818 547.924 961.818 549.904C961.818 551.884 962.322 553.738 963.33 555.466C964.374 557.158 965.76 558.526 967.488 559.57C969.216 560.578 971.07 561.082 973.05 561.082ZM1003.95 562.702C1001.61 562.702 999.45 562.144 997.47 561.028C995.526 559.912 993.978 558.382 992.826 556.438C991.674 554.494 991.098 552.298 991.098 549.85C991.098 547.582 991.674 545.494 992.826 543.586C993.978 541.642 995.544 540.094 997.524 538.942C999.54 537.79 1001.75 537.214 1004.17 537.214C1006.18 537.214 1007.91 537.538 1009.35 538.186C1010.79 538.834 1012.19 539.842 1013.56 541.21V544.126C1012.37 542.362 1011.04 541.03 1009.57 540.13C1008.13 539.194 1006.33 538.726 1004.17 538.726C1002.19 538.726 1000.31 539.248 998.55 540.292C996.822 541.3 995.436 542.668 994.392 544.396C993.348 546.124 992.826 547.978 992.826 549.958C992.826 552.118 993.33 554.062 994.338 555.79C995.346 557.482 996.696 558.814 998.388 559.786C1000.12 560.722 1001.97 561.19 1003.95 561.19C1007.98 561.19 1011.19 559.372 1013.56 555.736V558.652C1012.27 560.02 1010.83 561.046 1009.24 561.73C1007.69 562.378 1005.93 562.702 1003.95 562.702ZM1027.04 562.324C1024.37 562.324 1022.16 561.514 1020.39 559.894C1018.67 558.274 1017.8 556.042 1017.8 553.198V527.926H1019.53V537.7H1026.98V539.212H1019.53V553.198C1019.53 555.574 1020.23 557.446 1021.64 558.814C1023.08 560.146 1024.88 560.812 1027.04 560.812V562.324ZM1033.68 532.138C1033.18 532.138 1032.73 531.958 1032.33 531.598C1031.97 531.238 1031.79 530.788 1031.79 530.248C1031.79 529.744 1031.97 529.312 1032.33 528.952C1032.73 528.592 1033.18 528.412 1033.68 528.412C1034.19 528.412 1034.62 528.592 1034.98 528.952C1035.38 529.312 1035.57 529.744 1035.57 530.248C1035.57 530.788 1035.38 531.238 1034.98 531.598C1034.62 531.958 1034.19 532.138 1033.68 532.138ZM1032.82 537.7H1034.55V562H1032.82V537.7ZM1054.16 562.864C1051.71 562.864 1049.49 562.27 1047.51 561.082C1045.53 559.858 1043.99 558.256 1042.87 556.276C1041.75 554.26 1041.2 552.082 1041.2 549.742C1041.2 547.438 1041.75 545.296 1042.87 543.316C1044.02 541.336 1045.57 539.77 1047.51 538.618C1049.49 537.43 1051.69 536.836 1054.1 536.836C1056.48 536.836 1058.64 537.43 1060.58 538.618C1062.56 539.77 1064.11 541.336 1065.23 543.316C1066.34 545.296 1066.9 547.438 1066.9 549.742C1066.9 552.154 1066.36 554.368 1065.28 556.384C1064.2 558.364 1062.69 559.948 1060.74 561.136C1058.84 562.288 1056.64 562.864 1054.16 562.864ZM1054.16 561.352C1056.21 561.352 1058.08 560.83 1059.77 559.786C1061.46 558.742 1062.78 557.356 1063.71 555.628C1064.69 553.864 1065.17 551.938 1065.17 549.85C1065.17 547.798 1064.69 545.89 1063.71 544.126C1062.74 542.362 1061.41 540.958 1059.72 539.914C1058.03 538.87 1056.15 538.348 1054.1 538.348C1052.05 538.348 1050.16 538.888 1048.43 539.968C1046.74 541.012 1045.39 542.416 1044.38 544.18C1043.41 545.944 1042.92 547.852 1042.92 549.904C1042.92 551.956 1043.41 553.864 1044.38 555.628C1045.39 557.356 1046.74 558.742 1048.43 559.786C1050.16 560.83 1052.07 561.352 1054.16 561.352ZM1071.76 537.7H1073.49V543.1C1074.28 541.3 1075.63 539.86 1077.54 538.78C1079.45 537.664 1081.55 537.106 1083.86 537.106C1086.85 537.106 1089.2 538.06 1090.93 539.968C1092.7 541.84 1093.58 544.468 1093.58 547.852V562H1091.85V547.852C1091.85 544.936 1091.13 542.668 1089.69 541.048C1088.29 539.428 1086.31 538.618 1083.75 538.618C1081.88 538.618 1080.15 539.05 1078.57 539.914C1077.02 540.742 1075.78 541.894 1074.84 543.37C1073.94 544.846 1073.49 546.52 1073.49 548.392V562H1071.76V537.7ZM1121.5 529.06C1120.13 529.06 1118.87 529.402 1117.72 530.086C1116.56 530.734 1115.65 531.652 1114.96 532.84C1114.31 533.992 1113.99 535.27 1113.99 536.674V537.7H1121.5V539.212H1113.99V562H1112.26V536.674C1112.26 534.982 1112.66 533.452 1113.45 532.084C1114.28 530.68 1115.39 529.582 1116.8 528.79C1118.24 527.962 1119.8 527.548 1121.5 527.548V529.06ZM1126.08 537.7H1127.81V543.316C1128.53 541.552 1129.57 540.166 1130.94 539.158C1132.34 538.15 1133.93 537.646 1135.69 537.646C1136.81 537.646 1137.94 537.88 1139.09 538.348V540.346C1138.05 539.554 1136.88 539.158 1135.58 539.158C1134.29 539.158 1133.03 539.554 1131.8 540.346C1130.61 541.138 1129.64 542.2 1128.89 543.532C1128.17 544.864 1127.81 546.286 1127.81 547.798V562H1126.08V537.7ZM1153.3 562.864C1150.85 562.864 1148.63 562.27 1146.65 561.082C1144.67 559.858 1143.13 558.256 1142.01 556.276C1140.89 554.26 1140.34 552.082 1140.34 549.742C1140.34 547.438 1140.89 545.296 1142.01 543.316C1143.16 541.336 1144.71 539.77 1146.65 538.618C1148.63 537.43 1150.83 536.836 1153.24 536.836C1155.62 536.836 1157.78 537.43 1159.72 538.618C1161.7 539.77 1163.25 541.336 1164.37 543.316C1165.48 545.296 1166.04 547.438 1166.04 549.742C1166.04 552.154 1165.5 554.368 1164.42 556.384C1163.34 558.364 1161.83 559.948 1159.88 561.136C1157.98 562.288 1155.78 562.864 1153.3 562.864ZM1153.3 561.352C1155.35 561.352 1157.22 560.83 1158.91 559.786C1160.6 558.742 1161.92 557.356 1162.85 555.628C1163.83 553.864 1164.31 551.938 1164.31 549.85C1164.31 547.798 1163.83 545.89 1162.85 544.126C1161.88 542.362 1160.55 540.958 1158.86 539.914C1157.17 538.87 1155.29 538.348 1153.24 538.348C1151.19 538.348 1149.3 538.888 1147.57 539.968C1145.88 541.012 1144.53 542.416 1143.52 544.18C1142.55 545.944 1142.06 547.852 1142.06 549.904C1142.06 551.956 1142.55 553.864 1143.52 555.628C1144.53 557.356 1145.88 558.742 1147.57 559.786C1149.3 560.83 1151.21 561.352 1153.3 561.352ZM1170.9 537.7H1172.63V541.372C1174.29 538.528 1176.95 537.106 1180.62 537.106C1182.39 537.106 1183.92 537.61 1185.21 538.618C1186.51 539.59 1187.41 541.066 1187.91 543.046C1188.38 541.282 1189.41 539.86 1190.99 538.78C1192.61 537.664 1194.43 537.106 1196.44 537.106C1199.07 537.106 1201.11 537.88 1202.55 539.428C1203.99 540.94 1204.71 543.1 1204.71 545.908V562H1202.98V545.908C1202.98 543.64 1202.38 541.858 1201.2 540.562C1200.04 539.266 1198.51 538.618 1196.61 538.618C1195.17 538.618 1193.83 538.978 1192.61 539.698C1191.39 540.382 1190.41 541.318 1189.69 542.506C1188.97 543.694 1188.61 545.008 1188.61 546.448V562H1186.89V546.88C1186.89 544.288 1186.27 542.272 1185.05 540.832C1183.83 539.356 1182.24 538.618 1180.3 538.618C1179 538.618 1177.76 538.942 1176.57 539.59C1175.42 540.238 1174.47 541.12 1173.71 542.236C1172.99 543.316 1172.63 544.504 1172.63 545.8V562H1170.9V537.7ZM1234.82 562.594C1232.48 562.594 1230.32 562.018 1228.34 560.866C1226.4 559.714 1224.85 558.166 1223.7 556.222C1222.54 554.278 1221.97 552.154 1221.97 549.85C1221.97 547.546 1222.54 545.422 1223.7 543.478C1224.85 541.534 1226.4 539.986 1228.34 538.834C1230.32 537.682 1232.48 537.106 1234.82 537.106C1237.09 537.106 1239.25 537.718 1241.3 538.942C1243.35 540.13 1244.86 541.696 1245.84 543.64V521.5H1247.56V562H1245.84V556.114C1244.76 558.058 1243.19 559.624 1241.14 560.812C1239.12 562 1237.02 562.594 1234.82 562.594ZM1234.77 561.082C1236.75 561.082 1238.58 560.578 1240.27 559.57C1242 558.526 1243.37 557.158 1244.38 555.466C1245.42 553.738 1245.94 551.884 1245.94 549.904C1245.94 547.924 1245.42 546.07 1244.38 544.342C1243.37 542.614 1242 541.228 1240.27 540.184C1238.58 539.14 1236.75 538.618 1234.77 538.618C1232.79 538.618 1230.95 539.14 1229.26 540.184C1227.57 541.192 1226.22 542.56 1225.21 544.288C1224.2 546.016 1223.7 547.87 1223.7 549.85C1223.7 551.866 1224.18 553.738 1225.15 555.466C1226.16 557.158 1227.51 558.526 1229.2 559.57C1230.93 560.578 1232.79 561.082 1234.77 561.082ZM1265.94 562.864C1263.49 562.864 1261.27 562.27 1259.29 561.082C1257.31 559.858 1255.77 558.256 1254.65 556.276C1253.53 554.26 1252.98 552.082 1252.98 549.742C1252.98 547.438 1253.53 545.296 1254.65 543.316C1255.8 541.336 1257.35 539.77 1259.29 538.618C1261.27 537.43 1263.47 536.836 1265.88 536.836C1268.26 536.836 1270.42 537.43 1272.36 538.618C1274.34 539.77 1275.89 541.336 1277.01 543.316C1278.12 545.296 1278.68 547.438 1278.68 549.742C1278.68 552.154 1278.14 554.368 1277.06 556.384C1275.98 558.364 1274.47 559.948 1272.52 561.136C1270.62 562.288 1268.42 562.864 1265.94 562.864ZM1265.94 561.352C1267.99 561.352 1269.86 560.83 1271.55 559.786C1273.24 558.742 1274.56 557.356 1275.49 555.628C1276.47 553.864 1276.95 551.938 1276.95 549.85C1276.95 547.798 1276.47 545.89 1275.49 544.126C1274.52 542.362 1273.19 540.958 1271.5 539.914C1269.81 538.87 1267.93 538.348 1265.88 538.348C1263.83 538.348 1261.94 538.888 1260.21 539.968C1258.52 541.012 1257.17 542.416 1256.16 544.18C1255.19 545.944 1254.7 547.852 1254.7 549.904C1254.7 551.956 1255.19 553.864 1256.16 555.628C1257.17 557.356 1258.52 558.742 1260.21 559.786C1261.94 560.83 1263.85 561.352 1265.94 561.352ZM1295.52 562.702C1293.18 562.702 1291.02 562.144 1289.04 561.028C1287.09 559.912 1285.55 558.382 1284.39 556.438C1283.24 554.494 1282.67 552.298 1282.67 549.85C1282.67 547.582 1283.24 545.494 1284.39 543.586C1285.55 541.642 1287.11 540.094 1289.09 538.942C1291.11 537.79 1293.32 537.214 1295.73 537.214C1297.75 537.214 1299.48 537.538 1300.92 538.186C1302.36 538.834 1303.76 539.842 1305.13 541.21V544.126C1303.94 542.362 1302.61 541.03 1301.13 540.13C1299.69 539.194 1297.89 538.726 1295.73 538.726C1293.75 538.726 1291.88 539.248 1290.12 540.292C1288.39 541.3 1287 542.668 1285.96 544.396C1284.92 546.124 1284.39 547.978 1284.39 549.958C1284.39 552.118 1284.9 554.062 1285.91 555.79C1286.91 557.482 1288.26 558.814 1289.96 559.786C1291.68 560.722 1293.54 561.19 1295.52 561.19C1299.55 561.19 1302.75 559.372 1305.13 555.736V558.652C1303.83 560.02 1302.39 561.046 1300.81 561.73C1299.26 562.378 1297.5 562.702 1295.52 562.702ZM1320.6 562.594C1317.18 562.594 1314.54 561.658 1312.66 559.786C1310.83 557.914 1309.91 555.268 1309.91 551.848V537.7H1311.64V551.848C1311.64 554.8 1312.41 557.086 1313.96 558.706C1315.54 560.29 1317.76 561.082 1320.6 561.082C1322.33 561.082 1323.91 560.704 1325.35 559.948C1326.79 559.156 1327.93 558.058 1328.76 556.654C1329.58 555.25 1330 553.648 1330 551.848V537.7H1331.73V562H1330V557.464C1329.17 558.976 1327.93 560.218 1326.27 561.19C1324.62 562.126 1322.73 562.594 1320.6 562.594ZM1338.54 537.7H1340.27V541.372C1341.93 538.528 1344.59 537.106 1348.26 537.106C1350.03 537.106 1351.56 537.61 1352.85 538.618C1354.15 539.59 1355.05 541.066 1355.55 543.046C1356.02 541.282 1357.05 539.86 1358.63 538.78C1360.25 537.664 1362.07 537.106 1364.09 537.106C1366.71 537.106 1368.75 537.88 1370.19 539.428C1371.63 540.94 1372.35 543.1 1372.35 545.908V562H1370.62V545.908C1370.62 543.64 1370.03 541.858 1368.84 540.562C1367.69 539.266 1366.16 538.618 1364.25 538.618C1362.81 538.618 1361.48 538.978 1360.25 539.698C1359.03 540.382 1358.06 541.318 1357.34 542.506C1356.62 543.694 1356.26 545.008 1356.26 546.448V562H1354.53V546.88C1354.53 544.288 1353.92 542.272 1352.69 540.832C1351.47 539.356 1349.88 538.618 1347.94 538.618C1346.64 538.618 1345.4 538.942 1344.21 539.59C1343.06 540.238 1342.11 541.12 1341.35 542.236C1340.63 543.316 1340.27 544.504 1340.27 545.8V562H1338.54V537.7ZM1390.98 561.136C1392.85 561.136 1394.63 560.65 1396.32 559.678C1398.01 558.706 1399.42 557.374 1400.53 555.682V558.436C1399.2 559.912 1397.74 560.992 1396.16 561.676C1394.58 562.324 1392.78 562.648 1390.76 562.648C1388.53 562.648 1386.42 562.054 1384.44 560.866C1382.5 559.678 1380.93 558.094 1379.74 556.114C1378.59 554.134 1378.02 552.028 1378.02 549.796C1378.02 547.384 1378.59 545.224 1379.74 543.316C1380.9 541.372 1382.46 539.86 1384.44 538.78C1386.46 537.7 1388.69 537.16 1391.14 537.16C1394.88 537.16 1398.07 538.636 1400.7 541.588L1383.74 558.328C1384.93 559.3 1386.08 560.02 1387.2 560.488C1388.31 560.92 1389.57 561.136 1390.98 561.136ZM1379.74 549.634C1379.74 552.622 1380.73 555.178 1382.71 557.302L1398.54 541.588C1397.35 540.544 1396.2 539.806 1395.08 539.374C1393.96 538.906 1392.63 538.672 1391.08 538.672C1388.89 538.672 1386.93 539.158 1385.2 540.13C1383.51 541.066 1382.17 542.362 1381.2 544.018C1380.23 545.674 1379.74 547.546 1379.74 549.634ZM1406.1 537.7H1407.83V543.1C1408.62 541.3 1409.97 539.86 1411.88 538.78C1413.78 537.664 1415.89 537.106 1418.19 537.106C1421.18 537.106 1423.54 538.06 1425.27 539.968C1427.03 541.84 1427.91 544.468 1427.91 547.852V562H1426.19V547.852C1426.19 544.936 1425.47 542.668 1424.03 541.048C1422.62 539.428 1420.64 538.618 1418.09 538.618C1416.21 538.618 1414.49 539.05 1412.9 539.914C1411.35 540.742 1410.11 541.894 1409.18 543.37C1408.28 544.846 1407.83 546.52 1407.83 548.392V562H1406.1V537.7ZM1443.43 562.324C1440.76 562.324 1438.55 561.514 1436.78 559.894C1435.06 558.274 1434.19 556.042 1434.19 553.198V527.926H1435.92V537.7H1443.37V539.212H1435.92V553.198C1435.92 555.574 1436.62 557.446 1438.03 558.814C1439.47 560.146 1441.27 560.812 1443.43 560.812V562.324ZM1453.85 562.594C1452.13 562.594 1450.6 562.306 1449.26 561.73C1447.93 561.118 1446.98 560.344 1446.4 559.408V556.546C1447.09 558.094 1448.02 559.246 1449.21 560.002C1450.4 560.722 1451.91 561.082 1453.75 561.082C1455.51 561.082 1456.93 560.542 1458.01 559.462C1459.09 558.346 1459.63 556.924 1459.63 555.196C1459.63 553.72 1459.33 552.586 1458.71 551.794C1458.1 550.966 1457.11 550.138 1455.74 549.31L1453.69 548.122C1452.22 547.222 1451.1 546.52 1450.34 546.016C1449.62 545.476 1449.05 544.882 1448.62 544.234C1448.18 543.55 1447.97 542.758 1447.97 541.858C1447.97 540.418 1448.47 539.266 1449.48 538.402C1450.49 537.538 1451.8 537.106 1453.42 537.106C1455.4 537.106 1457.06 537.556 1458.39 538.456V540.832C1457.27 539.356 1455.67 538.618 1453.58 538.618C1452.43 538.618 1451.5 538.906 1450.78 539.482C1450.06 540.058 1449.7 540.796 1449.7 541.696C1449.7 542.488 1449.91 543.19 1450.34 543.802C1450.78 544.378 1451.37 544.918 1452.13 545.422C1452.92 545.926 1454.21 546.682 1456.01 547.69C1457.85 548.734 1459.2 549.814 1460.06 550.93C1460.93 552.01 1461.36 553.432 1461.36 555.196C1461.36 557.428 1460.62 559.228 1459.15 560.596C1457.71 561.928 1455.94 562.594 1453.85 562.594ZM1490.16 562.864C1487.72 562.864 1485.5 562.27 1483.52 561.082C1481.54 559.858 1479.99 558.256 1478.88 556.276C1477.76 554.26 1477.2 552.082 1477.2 549.742C1477.2 547.438 1477.76 545.296 1478.88 543.316C1480.03 541.336 1481.58 539.77 1483.52 538.618C1485.5 537.43 1487.7 536.836 1490.11 536.836C1492.49 536.836 1494.65 537.43 1496.59 538.618C1498.57 539.77 1500.12 541.336 1501.23 543.316C1502.35 545.296 1502.91 547.438 1502.91 549.742C1502.91 552.154 1502.37 554.368 1501.29 556.384C1500.21 558.364 1498.7 559.948 1496.75 561.136C1494.84 562.288 1492.65 562.864 1490.16 562.864ZM1490.16 561.352C1492.22 561.352 1494.09 560.83 1495.78 559.786C1497.47 558.742 1498.79 557.356 1499.72 555.628C1500.69 553.864 1501.18 551.938 1501.18 549.85C1501.18 547.798 1500.69 545.89 1499.72 544.126C1498.75 542.362 1497.42 540.958 1495.73 539.914C1494.03 538.87 1492.16 538.348 1490.11 538.348C1488.06 538.348 1486.17 538.888 1484.44 539.968C1482.75 541.012 1481.4 542.416 1480.39 544.18C1479.42 545.944 1478.93 547.852 1478.93 549.904C1478.93 551.956 1479.42 553.864 1480.39 555.628C1481.4 557.356 1482.75 558.742 1484.44 559.786C1486.17 560.83 1488.08 561.352 1490.16 561.352ZM1517.53 529.06C1516.16 529.06 1514.9 529.402 1513.75 530.086C1512.6 530.734 1511.68 531.652 1511 532.84C1510.35 533.992 1510.02 535.27 1510.02 536.674V537.7H1517.53V539.212H1510.02V562H1508.3V536.674C1508.3 534.982 1508.69 533.452 1509.48 532.084C1510.31 530.68 1511.43 529.582 1512.83 528.79C1514.27 527.962 1515.84 527.548 1517.53 527.548V529.06ZM1543.21 562.486C1541.52 562.486 1539.97 562.108 1538.57 561.352C1537.16 560.56 1536.05 559.462 1535.22 558.058C1534.39 556.654 1533.98 555.088 1533.98 553.36V521.5H1535.71V553.36C1535.71 554.8 1536.03 556.096 1536.68 557.248C1537.36 558.4 1538.28 559.318 1539.43 560.002C1540.58 560.65 1541.84 560.974 1543.21 560.974V562.486ZM1558.99 561.136C1560.86 561.136 1562.64 560.65 1564.33 559.678C1566.03 558.706 1567.43 557.374 1568.55 555.682V558.436C1567.21 559.912 1565.76 560.992 1564.17 561.676C1562.59 562.324 1560.79 562.648 1558.77 562.648C1556.54 562.648 1554.43 562.054 1552.45 560.866C1550.51 559.678 1548.94 558.094 1547.76 556.114C1546.6 554.134 1546.03 552.028 1546.03 549.796C1546.03 547.384 1546.6 545.224 1547.76 543.316C1548.91 541.372 1550.47 539.86 1552.45 538.78C1554.47 537.7 1556.7 537.16 1559.15 537.16C1562.89 537.16 1566.08 538.636 1568.71 541.588L1551.75 558.328C1552.94 559.3 1554.09 560.02 1555.21 560.488C1556.32 560.92 1557.58 561.136 1558.99 561.136ZM1547.76 549.634C1547.76 552.622 1548.75 555.178 1550.73 557.302L1566.55 541.588C1565.36 540.544 1564.21 539.806 1563.09 539.374C1561.98 538.906 1560.64 538.672 1559.1 538.672C1556.9 538.672 1554.94 539.158 1553.21 540.13C1551.52 541.066 1550.19 542.362 1549.21 544.018C1548.24 545.674 1547.76 547.546 1547.76 549.634ZM1585.83 573.232C1583.78 573.232 1581.78 572.764 1579.83 571.828C1577.89 570.892 1576.38 569.668 1575.3 568.156V565.672C1576.23 567.4 1577.69 568.84 1579.67 569.992C1581.69 571.144 1583.74 571.72 1585.83 571.72C1589.28 571.72 1591.95 570.694 1593.82 568.642C1595.69 566.626 1596.63 563.656 1596.63 559.732V556.114C1595.66 558.058 1594.13 559.642 1592.04 560.866C1589.99 562.054 1587.83 562.648 1585.56 562.648C1583.25 562.648 1581.11 562.072 1579.13 560.92C1577.15 559.768 1575.59 558.22 1574.43 556.276C1573.28 554.296 1572.71 552.172 1572.71 549.904C1572.71 547.636 1573.28 545.53 1574.43 543.586C1575.59 541.606 1577.15 540.04 1579.13 538.888C1581.11 537.736 1583.25 537.16 1585.56 537.16C1587.93 537.16 1590.13 537.754 1592.15 538.942C1594.16 540.13 1595.66 541.732 1596.63 543.748V537.7H1598.36V559.732C1598.36 564.16 1597.28 567.508 1595.12 569.776C1592.99 572.08 1589.9 573.232 1585.83 573.232ZM1585.67 561.136C1587.65 561.136 1589.48 560.632 1591.17 559.624C1592.87 558.58 1594.2 557.212 1595.17 555.52C1596.18 553.792 1596.68 551.92 1596.68 549.904C1596.68 547.888 1596.18 546.034 1595.17 544.342C1594.2 542.614 1592.87 541.246 1591.17 540.238C1589.48 539.194 1587.65 538.672 1585.67 538.672C1583.65 538.672 1581.78 539.194 1580.05 540.238C1578.36 541.246 1576.99 542.614 1575.95 544.342C1574.94 546.034 1574.43 547.888 1574.43 549.904C1574.43 551.92 1574.94 553.792 1575.95 555.52C1576.99 557.212 1578.36 558.58 1580.05 559.624C1581.78 560.632 1583.65 561.136 1585.67 561.136ZM1616.62 562.594C1614.31 562.594 1612.17 562.018 1610.19 560.866C1608.21 559.714 1606.65 558.166 1605.49 556.222C1604.34 554.242 1603.77 552.118 1603.77 549.85C1603.77 547.582 1604.34 545.476 1605.49 543.532C1606.65 541.552 1608.21 539.986 1610.19 538.834C1612.17 537.682 1614.31 537.106 1616.62 537.106C1618.96 537.106 1621.17 537.736 1623.26 538.996C1625.35 540.22 1626.81 541.822 1627.63 543.802V537.7H1629.36V562H1627.63V555.952C1626.66 557.968 1625.15 559.588 1623.1 560.812C1621.08 562 1618.92 562.594 1616.62 562.594ZM1616.73 561.082C1618.71 561.082 1620.54 560.578 1622.23 559.57C1623.93 558.526 1625.26 557.158 1626.23 555.466C1627.24 553.738 1627.74 551.866 1627.74 549.85C1627.74 547.87 1627.24 546.016 1626.23 544.288C1625.22 542.56 1623.87 541.192 1622.18 540.184C1620.49 539.14 1618.65 538.618 1616.67 538.618C1614.69 538.618 1612.84 539.14 1611.11 540.184C1609.42 541.228 1608.05 542.614 1607.01 544.342C1606 546.07 1605.49 547.924 1605.49 549.904C1605.49 551.884 1606 553.738 1607.01 555.466C1608.05 557.158 1609.44 558.526 1611.16 559.57C1612.89 560.578 1614.75 561.082 1616.73 561.082ZM1645.41 562.486C1643.72 562.486 1642.17 562.108 1640.77 561.352C1639.36 560.56 1638.25 559.462 1637.42 558.058C1636.59 556.654 1636.18 555.088 1636.18 553.36V521.5H1637.91V553.36C1637.91 554.8 1638.23 556.096 1638.88 557.248C1639.56 558.4 1640.48 559.318 1641.63 560.002C1642.78 560.65 1644.04 560.974 1645.41 560.974V562.486ZM1674.31 562.702C1671.97 562.702 1669.81 562.144 1667.83 561.028C1665.88 559.912 1664.34 558.382 1663.18 556.438C1662.03 554.494 1661.46 552.298 1661.46 549.85C1661.46 547.582 1662.03 545.494 1663.18 543.586C1664.34 541.642 1665.9 540.094 1667.88 538.942C1669.9 537.79 1672.11 537.214 1674.52 537.214C1676.54 537.214 1678.27 537.538 1679.71 538.186C1681.15 538.834 1682.55 539.842 1683.92 541.21V544.126C1682.73 542.362 1681.4 541.03 1679.92 540.13C1678.48 539.194 1676.68 538.726 1674.52 538.726C1672.54 538.726 1670.67 539.248 1668.91 540.292C1667.18 541.3 1665.79 542.668 1664.75 544.396C1663.71 546.124 1663.18 547.978 1663.18 549.958C1663.18 552.118 1663.69 554.062 1664.7 555.79C1665.7 557.482 1667.05 558.814 1668.75 559.786C1670.47 560.722 1672.33 561.19 1674.31 561.19C1678.34 561.19 1681.54 559.372 1683.92 555.736V558.652C1682.62 560.02 1681.18 561.046 1679.6 561.73C1678.05 562.378 1676.29 562.702 1674.31 562.702ZM1700.78 562.864C1698.34 562.864 1696.12 562.27 1694.14 561.082C1692.16 559.858 1690.61 558.256 1689.5 556.276C1688.38 554.26 1687.82 552.082 1687.82 549.742C1687.82 547.438 1688.38 545.296 1689.5 543.316C1690.65 541.336 1692.2 539.77 1694.14 538.618C1696.12 537.43 1698.32 536.836 1700.73 536.836C1703.11 536.836 1705.27 537.43 1707.21 538.618C1709.19 539.77 1710.74 541.336 1711.85 543.316C1712.97 545.296 1713.53 547.438 1713.53 549.742C1713.53 552.154 1712.99 554.368 1711.91 556.384C1710.83 558.364 1709.32 559.948 1707.37 561.136C1705.46 562.288 1703.27 562.864 1700.78 562.864ZM1700.78 561.352C1702.84 561.352 1704.71 560.83 1706.4 559.786C1708.09 558.742 1709.41 557.356 1710.34 555.628C1711.31 553.864 1711.8 551.938 1711.8 549.85C1711.8 547.798 1711.31 545.89 1710.34 544.126C1709.37 542.362 1708.04 540.958 1706.35 539.914C1704.65 538.87 1702.78 538.348 1700.73 538.348C1698.68 538.348 1696.79 538.888 1695.06 539.968C1693.37 541.012 1692.02 542.416 1691.01 544.18C1690.04 545.944 1689.55 547.852 1689.55 549.904C1689.55 551.956 1690.04 553.864 1691.01 555.628C1692.02 557.356 1693.37 558.742 1695.06 559.786C1696.79 560.83 1698.7 561.352 1700.78 561.352ZM1718.39 537.7H1720.12V543.1C1720.91 541.3 1722.26 539.86 1724.17 538.78C1726.08 537.664 1728.18 537.106 1730.49 537.106C1733.47 537.106 1735.83 538.06 1737.56 539.968C1739.32 541.84 1740.21 544.468 1740.21 547.852V562H1738.48V547.852C1738.48 544.936 1737.76 542.668 1736.32 541.048C1734.91 539.428 1732.93 538.618 1730.38 538.618C1728.51 538.618 1726.78 539.05 1725.19 539.914C1723.65 540.742 1722.4 541.894 1721.47 543.37C1720.57 544.846 1720.12 546.52 1720.12 548.392V562H1718.39V537.7ZM1755.72 562.324C1753.06 562.324 1750.84 561.514 1749.08 559.894C1747.35 558.274 1746.49 556.042 1746.49 553.198V527.926H1748.21V537.7H1755.67V539.212H1748.21V553.198C1748.21 555.574 1748.92 557.446 1750.32 558.814C1751.76 560.146 1753.56 560.812 1755.72 560.812V562.324ZM1772.09 561.136C1773.96 561.136 1775.74 560.65 1777.43 559.678C1779.13 558.706 1780.53 557.374 1781.65 555.682V558.436C1780.31 559.912 1778.86 560.992 1777.27 561.676C1775.69 562.324 1773.89 562.648 1771.87 562.648C1769.64 562.648 1767.53 562.054 1765.55 560.866C1763.61 559.678 1762.04 558.094 1760.86 556.114C1759.7 554.134 1759.13 552.028 1759.13 549.796C1759.13 547.384 1759.7 545.224 1760.86 543.316C1762.01 541.372 1763.57 539.86 1765.55 538.78C1767.57 537.7 1769.8 537.16 1772.25 537.16C1775.99 537.16 1779.18 538.636 1781.81 541.588L1764.85 558.328C1766.04 559.3 1767.19 560.02 1768.31 560.488C1769.42 560.92 1770.68 561.136 1772.09 561.136ZM1760.86 549.634C1760.86 552.622 1761.85 555.178 1763.83 557.302L1779.65 541.588C1778.46 540.544 1777.31 539.806 1776.19 539.374C1775.08 538.906 1773.74 538.672 1772.2 538.672C1770 538.672 1768.04 539.158 1766.31 540.13C1764.62 541.066 1763.29 542.362 1762.31 544.018C1761.34 545.674 1760.86 547.546 1760.86 549.634ZM1787.21 537.7H1788.94V543.1C1789.73 541.3 1791.08 539.86 1792.99 538.78C1794.89 537.664 1797 537.106 1799.3 537.106C1802.29 537.106 1804.65 538.06 1806.38 539.968C1808.14 541.84 1809.02 544.468 1809.02 547.852V562H1807.3V547.852C1807.3 544.936 1806.58 542.668 1805.14 541.048C1803.73 539.428 1801.75 538.618 1799.2 538.618C1797.32 538.618 1795.6 539.05 1794.01 539.914C1792.46 540.742 1791.22 541.894 1790.29 543.37C1789.39 544.846 1788.94 546.52 1788.94 548.392V562H1787.21V537.7ZM1824.54 562.324C1821.87 562.324 1819.66 561.514 1817.9 559.894C1816.17 558.274 1815.3 556.042 1815.3 553.198V527.926H1817.03V537.7H1824.48V539.212H1817.03V553.198C1817.03 555.574 1817.73 557.446 1819.14 558.814C1820.58 560.146 1822.38 560.812 1824.54 560.812V562.324Z" fill="black"/>
<defs>
<filter id="filter0_d" x="0" y="0" width="1956" height="774" filterUnits="userSpaceOnUse" color-interpolation-filters="sRGB">
<feFlood flood-opacity="0" result="BackgroundImageFix"/>
<feColorMatrix in="SourceAlpha" type="matrix" values="0 0 0 0 0 0 0 0 0 0 0 0 0 0 0 0 0 0 127 0"/>
<feOffset dy="6"/>
<feGaussianBlur stdDeviation="10"/>
<feColorMatrix type="matrix" values="0 0 0 0 0 0 0 0 0 0 0 0 0 0 0 0 0 0 0.25 0"/>
<feBlend mode="normal" in2="BackgroundImageFix" result="effect1_dropShadow"/>
<feBlend mode="normal" in="SourceGraphic" in2="effect1_dropShadow" result="shape"/>
</filter>
</defs>
</svg>
